<?xml version="1.0" encoding="UTF-8"?>
<!-- Generator: visioncortex VTracer 0.6.4 -->
<svg version="1.1" xmlns="http://www.w3.org/2000/svg" width="1152" height="648">
<path d="M0 0 C380.16 0 760.32 0 1152 0 C1152 213.84 1152 427.68 1152 648 C771.84 648 391.68 648 0 648 C0 434.16 0 220.32 0 0 Z " fill="#FEFEFE" transform="translate(0,0)"/>
<path d="M0 0 C1.243 -0.019 1.243 -0.019 2.512 -0.039 C3.404 -0.041 4.295 -0.043 5.214 -0.045 C6.147 -0.052 7.08 -0.059 8.041 -0.066 C10.022 -0.076 12.002 -0.08 13.982 -0.08 C16.959 -0.084 19.933 -0.121 22.909 -0.159 C34.581 -0.228 44.584 0.914 55.761 4.291 C57.759 4.79 59.76 5.277 61.765 5.748 C72.086 8.253 82.334 10.934 92.511 13.978 C93.481 14.263 94.451 14.549 95.45 14.843 C96.352 15.118 97.254 15.393 98.183 15.677 C98.972 15.917 99.762 16.156 100.576 16.403 C103.028 17.399 104.787 18.528 106.761 20.291 C107.091 21.281 107.421 22.271 107.761 23.291 C109.587 24.393 111.414 25.492 113.249 26.58 C117.5 29.475 121.132 33.07 124.87 36.583 C127.209 38.774 129.577 40.894 132.011 42.978 C135.451 45.955 138.634 49.138 141.815 52.388 C143.619 54.152 145.479 55.718 147.448 57.291 C152.358 61.43 155.108 66.634 157.593 72.478 C159.714 77.305 162.177 81.885 164.761 86.478 C165.399 87.629 165.399 87.629 166.05 88.804 C167.891 92.1 169.753 95.28 171.886 98.4 C174.646 102.656 176.322 107.255 178.198 111.951 C179.607 115.308 179.607 115.308 181.823 117.849 C186.009 123.124 186.283 129.451 187.073 135.916 C188.027 143.26 189.42 150.277 191.386 157.416 C193.659 165.761 194.434 173.72 194.62 182.349 C194.63 186.025 194.63 186.025 195.254 188.493 C195.949 192.328 195.956 196.096 196.007 199.986 C196.04 201.688 196.073 203.389 196.106 205.091 C196.154 207.762 196.198 210.433 196.238 213.104 C196.277 215.69 196.329 218.275 196.382 220.861 C196.39 221.661 196.399 222.461 196.407 223.285 C196.493 227.123 196.583 229.024 198.761 232.291 C198.97 234.784 199.064 237.163 199.062 239.658 C199.067 240.397 199.073 241.136 199.078 241.897 C199.09 244.32 199.084 246.743 199.073 249.166 C199.071 250.402 199.071 250.402 199.068 251.663 C199.025 263.041 198.644 274.335 197.573 285.666 C197.422 287.435 197.422 287.435 197.268 289.239 C196.615 295.23 195.772 298.855 191.918 303.461 C189.45 307.364 189.511 312.294 189.011 316.791 C187.476 327.885 184.337 335.351 177.761 344.291 C177.124 345.242 176.487 346.193 175.831 347.173 C172.895 351.544 169.769 355.636 166.218 359.525 C164.631 361.364 164.631 361.364 163.14 363.939 C159.49 369.505 154.247 373.882 149.491 378.482 C145.321 382.569 141.617 386.641 138.209 391.379 C135.7 394.69 132.775 397.565 129.823 400.478 C129.241 401.068 128.659 401.658 128.06 402.265 C125.173 405.138 122.319 407.679 118.944 409.966 C115.789 412.27 115.362 413.03 113.761 416.291 C111.58 417.999 109.428 419.563 107.136 421.103 C102.429 424.36 97.931 427.652 93.702 431.525 C93.061 432.108 92.421 432.69 91.761 433.291 C91.265 433.752 90.77 434.214 90.26 434.689 C86.095 438.442 81.997 440.964 76.886 443.228 C76.151 443.562 75.416 443.897 74.659 444.241 C72.367 445.275 70.066 446.286 67.761 447.291 C66.679 447.765 66.679 447.765 65.576 448.25 C52.604 453.899 39.515 458.363 25.667 461.345 C22.461 462.081 19.321 462.989 16.167 463.923 C4.94 467.24 -5.922 469.954 -17.561 471.296 C-22.97 471.931 -27.992 472.893 -33.239 474.353 C-39.252 475.962 -45.076 476.848 -51.273 477.386 C-52.707 477.513 -52.707 477.513 -54.171 477.641 C-65.008 478.528 -75.832 478.657 -86.7 478.697 C-87.763 478.702 -88.826 478.708 -89.922 478.714 C-95.529 478.744 -101.137 478.762 -106.745 478.771 C-112.48 478.782 -118.215 478.83 -123.95 478.887 C-128.42 478.924 -132.89 478.935 -137.36 478.938 C-139.473 478.944 -141.587 478.959 -143.7 478.986 C-155.406 479.123 -165.054 478.531 -175.834 473.733 C-179.358 472.24 -182.673 471.431 -186.427 470.728 C-191.044 469.85 -195.048 468.644 -199.364 466.791 C-205.741 464.165 -212.004 463.231 -218.822 462.542 C-224.551 461.873 -229.014 460.194 -234.191 457.686 C-237.583 456.133 -241.039 454.864 -244.56 453.642 C-245.195 453.419 -245.831 453.195 -246.486 452.965 C-249.103 452.047 -251.721 451.134 -254.347 450.244 C-261.808 447.705 -268.356 445.141 -274.33 439.838 C-277.048 437.636 -280.027 436.497 -283.239 435.181 C-288.096 433.018 -291.582 429.039 -295.239 425.291 C-296.029 424.52 -296.82 423.749 -297.634 422.955 C-300.091 420.442 -302.255 417.862 -304.427 415.103 C-308.361 410.221 -312.616 405.864 -317.103 401.494 C-319.239 399.291 -319.239 399.291 -321.239 396.228 C-323.757 392.53 -326.831 389.926 -330.216 387.025 C-332.058 385.435 -333.69 383.798 -335.339 382 C-341.69 375.174 -348.01 371.358 -356.489 367.603 C-358.879 366.499 -361.268 365.395 -363.657 364.291 C-364.792 363.775 -365.927 363.259 -367.096 362.728 C-371.036 360.926 -374.928 359.042 -378.802 357.103 C-379.834 356.594 -380.867 356.085 -381.931 355.56 C-384.239 354.291 -384.239 354.291 -386.239 352.291 C-388.897 351.271 -391.543 350.322 -394.239 349.416 C-399.129 347.74 -403.973 346.047 -408.739 344.041 C-411.739 342.799 -414.551 341.956 -417.739 341.353 C-421.134 340.697 -423.669 339.597 -426.669 337.896 C-432.841 334.742 -439.068 333.642 -445.864 332.541 C-447.094 332.33 -448.323 332.12 -449.59 331.903 C-457.606 330.579 -465.508 329.671 -473.626 329.431 C-476.239 329.291 -476.239 329.291 -477.239 328.291 C-479.497 328.182 -481.758 328.144 -484.019 328.133 C-484.728 328.128 -485.437 328.123 -486.167 328.117 C-487.713 328.107 -489.259 328.098 -490.805 328.091 C-493.256 328.08 -495.707 328.06 -498.159 328.038 C-505.131 327.977 -512.102 327.923 -519.074 327.889 C-523.336 327.868 -527.597 327.833 -531.858 327.788 C-533.478 327.774 -535.099 327.766 -536.719 327.762 C-552.842 327.727 -552.842 327.727 -559.239 324.291 C-561.427 321.353 -561.427 321.353 -563.239 318.291 C-564.897 316.946 -566.565 315.614 -568.239 314.291 C-569.254 313.094 -570.252 311.884 -571.239 310.666 C-577.438 303.433 -585.56 298.055 -593.435 292.791 C-600.167 288.279 -605.751 283.749 -609.739 276.603 C-611.305 274.189 -612.283 273.561 -614.677 272.103 C-618.778 269.395 -619.718 266.162 -621.278 261.642 C-622.586 258.441 -624.754 256.652 -627.239 254.291 C-628.361 252.286 -629.323 250.26 -630.247 248.158 C-631.336 246.108 -632.539 244.858 -634.239 243.291 C-639.792 237.611 -643.004 231.212 -646.378 224.098 C-647.715 221.292 -649.102 218.51 -650.489 215.728 C-650.948 214.799 -651.407 213.869 -651.88 212.912 C-653.213 210.259 -653.213 210.259 -654.841 207.708 C-657.83 202.54 -658.249 196.722 -658.614 190.853 C-658.99 185.957 -660.296 182.106 -662.263 177.634 C-663.171 175.453 -663.78 173.402 -664.302 171.103 C-665.119 167.275 -665.119 167.275 -666.802 163.853 C-670.335 155.098 -669.387 145.088 -669.372 135.783 C-669.373 134.288 -669.374 132.793 -669.375 131.298 C-669.376 128.18 -669.374 125.062 -669.37 121.943 C-669.364 117.961 -669.367 113.979 -669.373 109.997 C-669.377 106.916 -669.376 103.834 -669.373 100.753 C-669.372 99.285 -669.373 97.817 -669.376 96.349 C-669.378 94.294 -669.374 92.239 -669.369 90.185 C-669.368 89.019 -669.367 87.854 -669.366 86.653 C-669.142 80.711 -668.499 76.103 -665.427 70.978 C-663.33 67.349 -661.609 63.854 -660.177 59.916 C-657.724 53.589 -653.964 50.126 -647.843 47.128 C-642.267 45.334 -636.345 45.848 -630.552 45.978 C-629.247 45.988 -627.941 45.997 -626.597 46.007 C-621.317 46.07 -616.412 46.246 -611.239 47.291 C-608.857 47.466 -606.472 47.608 -604.087 47.728 C-587.17 48.725 -572.867 50.563 -557.481 58.262 C-555.155 59.329 -552.846 60.091 -550.399 60.833 C-546.814 61.972 -544.725 63.186 -542.239 66.103 C-536.597 72.167 -530.594 75.766 -522.989 78.978 C-516.37 81.909 -511.588 85.916 -506.251 90.673 C-503.042 93.462 -499.735 95.76 -496.149 98.025 C-494.239 99.291 -494.239 99.291 -491.239 101.916 C-488.653 103.963 -486.901 104.953 -483.927 106.166 C-480.424 107.605 -477.873 109.279 -474.989 111.728 C-470.54 115.359 -466.01 117.137 -460.63 119.044 C-457.231 120.294 -454.01 121.738 -450.739 123.291 C-443.18 126.841 -435.44 130.216 -427.364 132.416 C-424.239 133.291 -424.239 133.291 -421.052 134.853 C-416.783 136.797 -412.344 136.838 -407.716 137.08 C-405.239 137.291 -405.239 137.291 -404.239 138.291 C-401.985 138.573 -399.731 138.738 -397.466 138.912 C-395.239 139.291 -395.239 139.291 -392.239 141.291 C-389.857 141.607 -389.857 141.607 -387.173 141.581 C-386.142 141.594 -385.111 141.607 -384.048 141.62 C-382.936 141.622 -381.823 141.624 -380.677 141.626 C-379.534 141.633 -378.391 141.64 -377.214 141.647 C-374.796 141.657 -372.379 141.661 -369.961 141.661 C-366.254 141.666 -362.548 141.702 -358.841 141.74 C-356.494 141.746 -354.148 141.75 -351.802 141.751 C-350.133 141.773 -350.133 141.773 -348.43 141.795 C-347.399 141.789 -346.368 141.783 -345.306 141.776 C-344.398 141.779 -343.49 141.782 -342.554 141.785 C-339.502 141.133 -338.93 139.82 -337.239 137.291 C-334.56 136.457 -334.56 136.457 -331.364 135.982 C-330.214 135.792 -329.065 135.602 -327.88 135.406 C-325.453 135.037 -323.026 134.673 -320.599 134.312 C-319.449 134.121 -318.299 133.929 -317.114 133.732 C-315.533 133.495 -315.533 133.495 -313.919 133.254 C-310.467 132.013 -309.866 130.486 -308.239 127.291 C-306.005 125.849 -306.005 125.849 -303.489 124.728 C-300.505 123.35 -297.748 121.994 -294.927 120.291 C-291.73 118.413 -288.395 117.154 -284.927 115.853 C-274.878 112.772 -274.878 112.772 -267.028 106.455 C-266.125 104.346 -266.125 104.346 -265.239 101.291 C-264.579 100.961 -263.919 100.631 -263.239 100.291 C-262.967 99.61 -262.695 98.929 -262.415 98.228 C-260.842 94.297 -258.669 90.871 -256.427 87.291 C-255.788 86.243 -255.788 86.243 -255.136 85.173 C-251.928 80.03 -248.41 75.996 -243.614 72.228 C-241.21 70.435 -241.21 70.435 -239.739 68.228 C-237.849 65.786 -235.943 64.792 -233.239 63.291 C-229.453 61.017 -225.809 58.749 -222.364 55.978 C-220.239 54.291 -220.239 54.291 -218.239 54.291 C-217.909 53.301 -217.579 52.311 -217.239 51.291 C-216.579 51.291 -215.919 51.291 -215.239 51.291 C-214.992 50.507 -214.744 49.723 -214.489 48.916 C-213.042 45.876 -212.213 45.591 -209.239 44.291 C-208.579 43.301 -207.919 42.311 -207.239 41.291 C-204.673 40.595 -204.673 40.595 -201.677 40.166 C-198.148 39.909 -198.148 39.909 -195.239 38.291 C-193.494 38.138 -191.741 38.069 -189.989 38.041 C-189.035 38.015 -188.081 37.989 -187.099 37.962 C-183.745 38.347 -182.095 39.531 -179.239 41.291 C-170.259 45.748 -161.474 45.897 -151.696 45.857 C-150.117 45.862 -148.538 45.868 -146.958 45.876 C-143.668 45.886 -140.378 45.882 -137.087 45.867 C-132.887 45.85 -128.689 45.873 -124.489 45.908 C-121.235 45.93 -117.981 45.929 -114.727 45.921 C-113.179 45.92 -111.631 45.927 -110.083 45.941 C-101.556 46.011 -95.048 45.869 -88.239 40.291 C-85.771 39.322 -85.771 39.322 -83.739 38.791 C-79.723 37.576 -76.609 35.785 -73.13 33.47 C-71.239 32.291 -71.239 32.291 -67.864 30.916 C-63.753 29.072 -60.434 26.684 -56.786 24.064 C-51.794 20.588 -46.657 17.72 -40.927 15.666 C-37.375 14.549 -37.375 14.549 -35.302 12.791 C-32.57 10.804 -29.737 10.044 -26.532 9.041 C-24.006 8.252 -24.006 8.252 -20.739 6.791 C-17.318 5.324 -13.899 4.152 -10.353 3.037 C-8.231 2.352 -8.231 2.352 -6.372 1.262 C-4.056 0.207 -2.53 0.027 0 0 Z M-9.569 6.348 C-11.621 7.506 -13.652 8.136 -15.927 8.728 C-23.756 10.949 -31.744 13.291 -38.239 18.291 C-40.863 19.454 -43.526 20.341 -46.239 21.291 C-46.239 21.951 -46.239 22.611 -46.239 23.291 C-46.944 23.385 -47.649 23.479 -48.376 23.576 C-51.764 24.421 -54.121 25.841 -57.052 27.728 C-58.515 28.654 -58.515 28.654 -60.009 29.599 C-60.745 30.157 -61.481 30.715 -62.239 31.291 C-62.239 31.951 -62.239 32.611 -62.239 33.291 C-63.196 33.455 -63.196 33.455 -64.173 33.623 C-64.999 33.781 -65.825 33.94 -66.677 34.103 C-67.912 34.329 -67.912 34.329 -69.173 34.56 C-70.196 34.922 -70.196 34.922 -71.239 35.291 C-71.569 36.281 -71.899 37.271 -72.239 38.291 C-74.614 39.228 -74.614 39.228 -78.239 40.291 C-80.078 40.899 -81.911 41.525 -83.739 42.166 C-84.636 42.472 -85.534 42.779 -86.458 43.095 C-89.357 44.212 -89.357 44.212 -91.967 46.332 C-95.785 48.617 -97.966 48.802 -102.384 48.824 C-103.417 48.837 -103.417 48.837 -104.471 48.85 C-106.736 48.873 -109.001 48.866 -111.267 48.857 C-112.859 48.862 -114.451 48.868 -116.043 48.876 C-119.381 48.886 -122.719 48.882 -126.057 48.867 C-130.293 48.85 -134.528 48.873 -138.764 48.908 C-142.056 48.931 -145.348 48.929 -148.64 48.921 C-150.199 48.92 -151.758 48.927 -153.317 48.941 C-164.111 49.029 -173.265 47.692 -183.239 43.291 C-183.899 42.631 -184.559 41.971 -185.239 41.291 C-188.323 41.124 -188.323 41.124 -191.239 41.291 C-191.239 41.951 -191.239 42.611 -191.239 43.291 C-191.915 43.279 -192.59 43.267 -193.286 43.255 C-194.178 43.246 -195.07 43.237 -195.989 43.228 C-196.871 43.216 -197.753 43.205 -198.661 43.193 C-201.021 43.282 -202.984 43.621 -205.239 44.291 C-205.569 45.611 -205.899 46.931 -206.239 48.291 C-207.415 48.383 -207.415 48.383 -208.614 48.478 C-209.481 48.746 -210.347 49.014 -211.239 49.291 C-212.614 51.767 -212.614 51.767 -213.239 54.291 C-213.899 54.291 -214.559 54.291 -215.239 54.291 C-215.239 54.951 -215.239 55.611 -215.239 56.291 C-216.322 56.662 -216.322 56.662 -217.427 57.041 C-220.515 58.413 -222.749 60.014 -225.239 62.291 C-225.239 62.951 -225.239 63.611 -225.239 64.291 C-226.384 64.445 -226.384 64.445 -227.552 64.603 C-230.505 65.359 -231.198 66.16 -233.239 68.291 C-233.92 68.414 -234.601 68.538 -235.302 68.666 C-235.941 68.872 -236.581 69.078 -237.239 69.291 C-237.703 70.497 -237.703 70.497 -238.177 71.728 C-239.239 74.291 -239.239 74.291 -241.864 75.603 C-242.648 75.83 -243.432 76.057 -244.239 76.291 C-244.239 76.951 -244.239 77.611 -244.239 78.291 C-244.899 78.291 -245.559 78.291 -246.239 78.291 C-246.239 79.281 -246.239 80.271 -246.239 81.291 C-247.724 81.786 -247.724 81.786 -249.239 82.291 C-250.891 84.468 -250.891 84.468 -252.364 87.103 C-253.142 88.412 -253.142 88.412 -253.935 89.748 C-255.314 92.168 -255.314 92.168 -255.731 94.552 C-255.899 95.126 -256.067 95.7 -256.239 96.291 C-257.724 96.786 -257.724 96.786 -259.239 97.291 C-260.469 100.802 -260.469 100.802 -261.239 104.291 C-261.899 104.291 -262.559 104.291 -263.239 104.291 C-265.441 108.095 -265.441 108.095 -266.239 112.291 C-266.785 112.469 -267.33 112.647 -267.892 112.83 C-285.037 118.205 -285.037 118.205 -300.513 127.029 C-302.239 128.291 -302.239 128.291 -304.419 129.326 C-306.457 130.143 -306.457 130.143 -306.989 132.416 C-307.072 133.034 -307.154 133.653 -307.239 134.291 C-312.228 135.793 -317.176 136.931 -322.302 137.853 C-322.983 137.979 -323.664 138.104 -324.366 138.234 C-328.318 138.959 -332.275 139.641 -336.239 140.291 C-336.569 141.611 -336.899 142.931 -337.239 144.291 C-344.489 144.337 -351.739 144.372 -358.988 144.394 C-362.355 144.405 -365.721 144.419 -369.087 144.441 C-372.957 144.466 -376.826 144.477 -380.696 144.486 C-381.906 144.496 -383.115 144.506 -384.361 144.517 C-386.043 144.517 -386.043 144.517 -387.758 144.518 C-388.746 144.522 -389.734 144.526 -390.753 144.531 C-393.239 144.291 -393.239 144.291 -396.239 142.291 C-398.486 141.873 -398.486 141.873 -400.864 141.728 C-405.141 141.389 -405.141 141.389 -406.239 140.291 C-409.328 139.876 -412.415 139.521 -415.517 139.216 C-419.858 138.713 -422.606 137.641 -426.239 135.291 C-428.22 134.607 -430.223 133.985 -432.239 133.416 C-441.872 130.553 -451.017 127.058 -459.919 122.392 C-462.146 121.335 -464.239 120.679 -466.614 120.041 C-472.009 118.391 -475.927 114.886 -480.306 111.439 C-483.485 109.11 -486.519 107.582 -490.204 106.24 C-492.922 104.972 -494.936 103.212 -497.239 101.291 C-498.315 100.437 -499.393 99.587 -500.474 98.74 C-501.043 98.292 -501.612 97.844 -502.198 97.383 C-503.422 96.423 -504.647 95.465 -505.874 94.509 C-508.508 92.453 -511.117 90.394 -513.661 88.228 C-517.913 84.647 -521.849 82.548 -527.052 80.541 C-533.973 77.777 -538.385 74.026 -543.618 68.779 C-547.257 65.324 -550.641 63.261 -555.489 62.041 C-558.804 61.123 -561.909 60.033 -565.036 58.615 C-574.718 54.235 -583.234 52.162 -593.819 51.469 C-596.339 51.283 -598.841 51.021 -601.353 50.74 C-611.55 49.625 -621.732 49.024 -631.989 48.853 C-633.06 48.819 -634.13 48.784 -635.233 48.749 C-642.481 48.709 -648.279 49.979 -654.239 54.291 C-656.137 56.827 -657.19 59.313 -658.239 62.291 C-658.923 64.021 -659.61 65.75 -660.302 67.478 C-660.629 68.322 -660.957 69.167 -661.294 70.037 C-662.239 72.291 -662.239 72.291 -663.927 75.041 C-666.573 79.576 -666.367 84.799 -666.385 89.932 C-666.391 91.234 -666.397 92.536 -666.404 93.878 C-666.405 95.289 -666.406 96.7 -666.407 98.111 C-666.41 99.576 -666.414 101.041 -666.417 102.505 C-666.423 105.573 -666.425 108.641 -666.425 111.709 C-666.424 115.609 -666.438 119.509 -666.455 123.409 C-666.467 126.436 -666.468 129.462 -666.468 132.489 C-666.469 133.925 -666.473 135.361 -666.481 136.797 C-666.538 148.225 -666.036 158.774 -661.239 169.291 C-659.832 173.602 -658.542 177.947 -657.239 182.291 C-656.909 183.281 -656.579 184.271 -656.239 185.291 C-656.031 187.122 -655.826 188.954 -655.644 190.788 C-654.832 198.743 -653.658 205.733 -648.739 212.291 C-647.25 214.277 -646.45 216.011 -645.489 218.291 C-642.068 226.238 -637.697 233.587 -632.239 240.291 C-631.22 241.756 -630.219 243.235 -629.239 244.728 C-628.726 245.504 -628.213 246.28 -627.685 247.08 C-626.485 248.915 -625.298 250.758 -624.114 252.603 C-622.387 255.293 -622.387 255.293 -620.239 257.103 C-618.194 259.34 -617.474 260.948 -616.364 263.728 C-614.486 268.232 -612.11 270.272 -608.239 273.291 C-607.224 274.554 -606.246 275.848 -605.302 277.166 C-600.176 284.207 -594.733 288.741 -587.298 293.248 C-583.061 296.077 -579.285 299.357 -575.479 302.735 C-572.767 305.434 -572.767 305.434 -569.239 306.291 C-568.98 306.89 -568.721 307.489 -568.454 308.107 C-567.146 310.458 -565.912 311.59 -563.802 313.228 C-561.465 315.132 -560.218 316.328 -558.677 318.978 C-556.686 322.18 -554.715 322.871 -551.239 324.291 C-547.614 324.752 -547.614 324.752 -543.689 324.707 C-542.958 324.716 -542.228 324.724 -541.475 324.733 C-539.077 324.758 -536.68 324.762 -534.282 324.767 C-532.612 324.781 -530.941 324.797 -529.271 324.814 C-524.887 324.856 -520.503 324.881 -516.118 324.902 C-509.084 324.938 -502.049 324.998 -495.014 325.06 C-492.554 325.079 -490.094 325.091 -487.634 325.102 C-486.137 325.112 -484.639 325.122 -483.142 325.133 C-481.83 325.139 -480.518 325.146 -479.166 325.152 C-476.239 325.291 -476.239 325.291 -475.239 326.291 C-473.158 326.429 -471.074 326.524 -468.989 326.603 C-461.398 326.986 -454.089 328.315 -446.65 329.831 C-445.804 330.003 -444.958 330.175 -444.087 330.353 C-443.269 330.52 -442.451 330.687 -441.608 330.858 C-439.375 331.266 -437.168 331.538 -434.911 331.767 C-431.446 332.261 -429.414 332.939 -426.427 334.666 C-422.986 336.501 -419.836 337.79 -416.052 338.728 C-410.736 340.046 -405.775 342.004 -400.73 344.099 C-397.144 345.574 -393.614 346.811 -389.864 347.791 C-386.569 348.716 -384.245 349.856 -381.509 351.896 C-377.283 354.792 -372.925 356.955 -368.274 359.06 C-367.551 359.389 -366.828 359.717 -366.083 360.056 C-363.07 361.419 -360.053 362.772 -357.026 364.105 C-347.392 368.365 -339.649 372.589 -332.239 380.291 C-331.05 381.439 -329.858 382.587 -328.665 383.732 C-327.624 384.769 -326.586 385.809 -325.552 386.853 C-324.996 387.412 -324.439 387.971 -323.866 388.546 C-320.483 391.97 -317.227 395.461 -314.114 399.134 C-312.058 401.499 -309.928 403.782 -307.787 406.069 C-300.101 414.283 -300.101 414.283 -296.989 418.666 C-293.971 422.885 -290.235 426.022 -286.239 429.291 C-285.033 430.373 -285.033 430.373 -283.802 431.478 C-280.908 433.524 -278.024 434.731 -274.716 435.97 C-272.382 437.214 -270.981 438.413 -269.075 440.205 C-264.909 443.883 -260.502 445.242 -255.239 446.791 C-253.368 447.375 -251.499 447.964 -249.63 448.556 C-248.715 448.844 -247.801 449.132 -246.858 449.429 C-243.168 450.643 -239.579 452.059 -235.989 453.541 C-234.203 454.268 -234.203 454.268 -232.38 455.009 C-231.343 455.432 -230.307 455.855 -229.239 456.291 C-222.528 459.01 -215.961 459.951 -208.79 460.666 C-205.073 461.32 -202.55 462.523 -199.239 464.291 C-192.575 466.667 -185.892 468.424 -178.929 469.627 C-175.983 470.354 -173.557 471.528 -170.814 472.82 C-161.152 476.574 -151.273 475.971 -141.044 475.884 C-138.885 475.883 -136.726 475.883 -134.568 475.884 C-130.051 475.883 -125.534 475.864 -121.017 475.833 C-115.31 475.793 -109.603 475.789 -103.896 475.796 C-65.712 476.782 -65.712 476.782 -28.446 469.946 C-25.04 468.934 -21.642 468.645 -18.114 468.353 C-5.911 467.111 5.591 463.706 17.287 460.134 C21.497 458.872 25.67 457.885 29.988 457.077 C50.75 453.102 77.513 443.538 92.761 428.291 C95.593 425.792 98.467 423.482 101.636 421.416 C106.51 418.101 111.068 414.406 114.761 409.791 C116.483 407.637 118.05 406.117 120.136 404.353 C124.221 400.851 128.065 397.138 131.886 393.353 C132.471 392.78 133.057 392.207 133.661 391.617 C136.607 388.678 139.251 385.72 141.69 382.345 C145.501 377.115 150.161 372.823 154.839 368.378 C159 364.332 162.347 360.269 165.406 355.33 C166.8 353.232 168.337 351.485 170.073 349.666 C180.332 337.974 184.076 326.894 186.69 311.697 C187.658 306.295 188.77 301.281 192.761 297.291 C193.207 295.051 193.207 295.051 193.358 292.458 C193.438 291.495 193.517 290.531 193.599 289.539 C193.673 288.529 193.747 287.519 193.823 286.478 C193.978 284.492 194.136 282.506 194.296 280.521 C194.362 279.638 194.428 278.755 194.495 277.846 C194.761 275.291 194.761 275.291 195.279 272.993 C195.942 269.271 195.923 265.582 195.929 261.814 C195.932 261.007 195.935 260.2 195.939 259.368 C195.944 257.669 195.946 255.969 195.946 254.27 C195.948 251.667 195.966 249.065 195.985 246.462 C195.988 244.809 195.99 243.155 195.991 241.501 C195.998 240.723 196.006 239.945 196.013 239.143 C195.997 235.322 195.932 233.548 193.761 230.291 C193.531 227.379 193.412 224.556 193.382 221.642 C193.365 220.793 193.348 219.943 193.33 219.068 C193.277 216.35 193.237 213.633 193.198 210.916 C193.154 208.205 193.107 205.495 193.055 202.785 C193.024 201.099 192.997 199.412 192.975 197.726 C192.906 193.773 192.626 190.163 191.761 186.291 C191.666 184.824 191.608 183.354 191.585 181.884 C191.561 181.057 191.537 180.229 191.513 179.376 C191.471 177.684 191.439 175.991 191.419 174.298 C191.21 167.983 189.721 162.667 187.752 156.682 C185.778 149.929 185.174 142.924 184.339 135.957 C183.464 129.324 182.3 123.997 178.761 118.291 C178.255 117.447 177.75 116.604 177.229 115.736 C176.745 114.929 176.26 114.122 175.761 113.291 C174.579 110.922 173.415 108.548 172.261 106.166 C168.663 98.824 164.652 91.77 160.442 84.763 C158.008 80.663 156.163 76.877 154.761 72.291 C153.466 70.594 152.127 68.93 150.761 67.291 C150.135 66.103 149.51 64.916 148.886 63.728 C145.483 58.127 140.24 54.371 135.257 50.244 C132.365 47.838 129.69 45.31 127.073 42.603 C121.048 36.42 114.39 30.417 106.761 26.291 C106.101 26.291 105.441 26.291 104.761 26.291 C104.431 24.641 104.101 22.991 103.761 21.291 C91.597 16.951 79.329 13.249 66.823 10.041 C64.907 9.547 64.907 9.547 62.952 9.044 C60.439 8.408 57.922 7.785 55.402 7.174 C53.075 6.609 50.753 6.022 48.439 5.406 C38.827 3.022 29.473 2.798 19.627 2.844 C16.869 2.853 14.113 2.824 11.354 2.792 C9.576 2.791 7.797 2.791 6.019 2.794 C5.207 2.783 4.395 2.772 3.559 2.76 C-1.557 2.822 -5.109 3.822 -9.569 6.348 Z " fill="#101010" transform="translate(776.2392578125,115.70947265625)"/>
<path d="M0 0 C0.954 -0.026 1.908 -0.052 2.891 -0.078 C6.244 0.307 7.894 1.49 10.75 3.25 C19.774 7.751 28.575 7.809 38.398 7.711 C39.985 7.709 41.572 7.708 43.158 7.708 C46.461 7.705 49.764 7.689 53.067 7.662 C57.294 7.627 61.52 7.62 65.746 7.622 C69.013 7.621 72.28 7.61 75.547 7.596 C77.106 7.589 78.665 7.585 80.223 7.584 C82.398 7.579 84.573 7.562 86.748 7.541 C87.982 7.533 89.217 7.525 90.489 7.517 C93.66 7.257 95.895 6.609 98.75 5.25 C97 10.125 97 10.125 94.75 11.25 C92.522 11.368 90.291 11.42 88.06 11.443 C87.372 11.451 86.683 11.459 85.974 11.468 C83.687 11.493 81.4 11.509 79.113 11.523 C78.328 11.529 77.544 11.534 76.735 11.54 C72.568 11.566 68.401 11.586 64.234 11.6 C60.809 11.613 57.385 11.641 53.961 11.682 C49.809 11.732 45.657 11.756 41.505 11.763 C39.934 11.77 38.364 11.785 36.794 11.809 C25.935 11.967 16.783 10.698 6.75 6.25 C6.09 5.59 5.43 4.93 4.75 4.25 C2.762 3.852 0.761 3.512 -1.25 3.25 C-1.25 3.91 -1.25 4.57 -1.25 5.25 C-5.87 5.58 -10.49 5.91 -15.25 6.25 C-15.58 7.57 -15.91 8.89 -16.25 10.25 C-16.848 10.312 -17.446 10.374 -18.062 10.438 C-21.108 11.569 -21.695 13.493 -23.25 16.25 C-23.91 16.25 -24.57 16.25 -25.25 16.25 C-25.25 16.91 -25.25 17.57 -25.25 18.25 C-29.705 20.725 -29.705 20.725 -34.25 23.25 C-32.759 18.527 -32.759 18.527 -30.188 17.125 C-29.548 16.836 -28.909 16.548 -28.25 16.25 C-27.92 15.26 -27.59 14.27 -27.25 13.25 C-26.59 13.25 -25.93 13.25 -25.25 13.25 C-25.003 12.466 -24.755 11.683 -24.5 10.875 C-23.053 7.835 -22.224 7.551 -19.25 6.25 C-18.59 5.26 -17.93 4.27 -17.25 3.25 C-14.684 2.555 -14.684 2.555 -11.688 2.125 C-7.328 1.479 -4.408 0.071 0 0 Z " fill="#080808" transform="translate(586.25,153.75)"/>
<path d="M0 0 C0.495 1.485 0.495 1.485 1 3 C0.34 3.99 -0.32 4.98 -1 6 C-1.495 8.363 -1.495 8.363 -1.754 11.016 C-3.468 24.428 -5.983 34.103 -14 45 C-14.637 45.951 -15.274 46.903 -15.93 47.883 C-18.865 52.254 -21.992 56.346 -25.543 60.234 C-27.13 62.074 -27.13 62.074 -28.621 64.648 C-32.271 70.214 -37.514 74.591 -42.27 79.191 C-46.437 83.276 -50.138 87.344 -53.543 92.08 C-56.092 95.438 -59.067 98.356 -62.062 101.312 C-62.961 102.222 -62.961 102.222 -63.877 103.15 C-67.041 106.3 -70.005 108.908 -74 111 C-74 105.6 -69.152 102.155 -65.489 98.487 C-60.818 93.866 -60.818 93.866 -58.796 91.92 C-55.945 89.133 -53.434 86.325 -51.098 83.09 C-47.276 77.847 -42.611 73.544 -37.922 69.088 C-33.761 65.042 -30.414 60.979 -27.355 56.039 C-25.961 53.942 -24.424 52.195 -22.688 50.375 C-11.75 37.91 -8.105 25.607 -5.43 9.419 C-4.341 3.289 -4.341 3.289 -1.938 1.25 C-0.978 0.631 -0.978 0.631 0 0 Z " fill="#171717" transform="translate(968,415)"/>
<path d="M0 0 C0.99 0.495 0.99 0.495 2 1 C-1.321 9.928 -7.806 13.792 -15.358 18.858 C-18.115 20.775 -20.586 22.971 -23.059 25.234 C-23.699 25.817 -24.34 26.4 -25 27 C-25.495 27.462 -25.991 27.923 -26.501 28.399 C-30.666 32.151 -34.764 34.674 -39.875 36.938 C-40.61 37.272 -41.344 37.606 -42.101 37.95 C-44.394 38.984 -46.695 39.996 -49 41 C-49.721 41.316 -50.442 41.633 -51.185 41.959 C-64.222 47.637 -77.37 52.088 -91.281 55.109 C-97.251 56.539 -103.129 58.289 -109.018 60.019 C-109.893 60.275 -110.767 60.53 -111.668 60.793 C-112.455 61.025 -113.241 61.258 -114.052 61.497 C-116 62 -116 62 -118 62 C-117.938 60.148 -117.938 60.148 -117 58 C-114.612 56.965 -112.5 56.27 -110 55.625 C-108.876 55.311 -108.876 55.311 -107.73 54.991 C-103.266 53.771 -98.779 52.716 -94.258 51.734 C-78.027 48.17 -63.159 42.794 -48 36 C-46.708 35.422 -46.708 35.422 -45.39 34.833 C-37.334 31.173 -30.316 27.316 -24 21 C-21.147 18.482 -18.244 16.161 -15.062 14.062 C-9.151 10.081 -4.397 5.596 0 0 Z " fill="#191919" transform="translate(893,522)"/>
<path d="M0 0 C0.66 0.33 1.32 0.66 2 1 C-1.321 9.928 -7.806 13.792 -15.358 18.858 C-18.115 20.775 -20.586 22.971 -23.059 25.234 C-24.02 26.108 -24.02 26.108 -25 27 C-25.486 27.456 -25.972 27.912 -26.472 28.381 C-30.857 32.348 -35.326 34.985 -40.688 37.438 C-41.806 37.982 -41.806 37.982 -42.947 38.537 C-44.031 39.043 -44.031 39.043 -45.137 39.559 C-45.783 39.861 -46.43 40.163 -47.096 40.474 C-49.403 41.111 -50.759 40.752 -53 40 C-49.01 36.506 -44.94 34.398 -40.188 32.188 C-33.929 29.173 -28.939 25.939 -24 21 C-21.147 18.482 -18.244 16.161 -15.062 14.062 C-9.151 10.081 -4.397 5.596 0 0 Z " fill="#151515" transform="translate(893,522)"/>
<path d="M0 0 C0.33 0.99 0.66 1.98 1 3 C0.01 4.485 0.01 4.485 -1 6 C-1.495 8.363 -1.495 8.363 -1.754 11.016 C-3.492 24.596 -5.815 38.674 -17 48 C-18.485 48.495 -18.485 48.495 -20 49 C-18.601 45.018 -16.651 42.093 -14.188 38.688 C-8.361 29.994 -7.168 19.58 -5.446 9.451 C-4.323 3.274 -4.323 3.274 -1.938 1.25 C-1.298 0.837 -0.659 0.425 0 0 Z " fill="#171717" transform="translate(968,415)"/>
<path d="M0 0 C0.495 1.485 0.495 1.485 1 3 C0.385 3.675 -0.23 4.351 -0.863 5.047 C-1.672 5.939 -2.48 6.831 -3.312 7.75 C-4.113 8.632 -4.914 9.513 -5.738 10.422 C-7.957 12.88 -7.957 12.88 -9.613 15.176 C-11.351 17.461 -13.486 19.114 -15.684 20.941 C-21.033 25.696 -25.975 30.907 -31 36 C-31.66 35.67 -32.32 35.34 -33 35 C-32.456 34.472 -31.912 33.943 -31.351 33.399 C-28.851 30.961 -26.363 28.512 -23.875 26.062 C-23.019 25.232 -22.163 24.401 -21.281 23.545 C-16.632 18.949 -12.74 14.445 -9.265 8.908 C-7.677 6.513 -5.852 4.742 -3.625 2.938 C-2.592 2.085 -2.592 2.085 -1.539 1.215 C-0.777 0.613 -0.777 0.613 0 0 Z " fill="#2A2A2A" transform="translate(950,462)"/>
<path d="M0 0 C0.66 0.33 1.32 0.66 2 1 C-0.351 6.692 -0.351 6.692 -3.5 8.188 C-4.325 8.456 -5.15 8.724 -6 9 C-6.516 9.536 -7.031 10.072 -7.562 10.625 C-9 12 -9 12 -13 12 C-13.227 12.784 -13.454 13.567 -13.688 14.375 C-15 17 -15 17 -17.625 18.312 C-18.409 18.539 -19.192 18.766 -20 19 C-20 15 -20 15 -17.875 12.5 C-14.411 9.488 -10.763 7.099 -6.875 4.676 C-6.153 4.226 -5.431 3.776 -4.688 3.312 C-4.011 2.896 -3.334 2.48 -2.637 2.051 C-1.031 1.102 -1.031 1.102 0 0 Z " fill="#161616" transform="translate(552,173)"/>
<path d="M0 0 C-2.284 3.426 -2.92 3.56 -6.719 4.605 C-7.651 4.867 -8.583 5.128 -9.543 5.396 C-10.519 5.658 -11.495 5.919 -12.5 6.188 C-13.476 6.46 -14.452 6.733 -15.457 7.014 C-22.656 9 -22.656 9 -25 9 C-24.732 7.091 -24.732 7.091 -24 5 C-21.165 3.893 -18.554 3.057 -15.625 2.312 C-14.844 2.1 -14.063 1.888 -13.258 1.67 C-11.802 1.275 -10.345 0.887 -8.885 0.509 C-3.257 -1.011 -3.257 -1.011 0 0 Z " fill="#1E1E1E" transform="translate(800,575)"/>
<path d="M0 0 C0.33 0 0.66 0 1 0 C1.595 6.955 0.064 10.69 -3.75 16.438 C-4.193 17.156 -4.637 17.875 -5.094 18.615 C-8.432 23.814 -8.432 23.814 -11.161 24.707 C-12.071 24.852 -12.071 24.852 -13 25 C-11.076 19.637 -8.024 15.132 -4.973 10.352 C-2.972 6.952 -1.474 3.65 0 0 Z " fill="#161616" transform="translate(961,439)"/>
<path d="M0 0 C0.201 3.716 0.152 4.772 -2 8 C-2.66 8 -3.32 8 -4 8 C-4.268 8.928 -4.536 9.856 -4.812 10.812 C-6.481 15.291 -6.481 15.291 -9 17 C-12.188 17.688 -12.188 17.688 -15 18 C-14.257 17.34 -13.515 16.68 -12.75 16 C-10.565 13.84 -9.286 11.784 -8 9 C-6.667 6.128 -3.716 0 0 0 Z " fill="#0C0C0C" transform="translate(517,212)"/>
<path d="M0 0 C0.33 0.99 0.66 1.98 1 3 C-1.763 5.821 -4.536 8.63 -7.312 11.438 C-8.098 12.24 -8.884 13.042 -9.693 13.869 C-10.451 14.633 -11.208 15.397 -11.988 16.184 C-12.685 16.891 -13.381 17.598 -14.099 18.326 C-16 20 -16 20 -19 21 C-17.543 17.637 -15.689 15.455 -13.086 12.891 C-12.325 12.137 -11.565 11.382 -10.781 10.605 C-9.987 9.828 -9.193 9.051 -8.375 8.25 C-7.573 7.457 -6.771 6.664 -5.945 5.848 C-3.968 3.894 -1.986 1.945 0 0 Z " fill="#161616" transform="translate(915,503)"/>
<path d="M0 0 C0.33 0.99 0.66 1.98 1 3 C0.344 3.331 -0.312 3.663 -0.988 4.004 C-5.235 6.818 -8.614 10.325 -12.188 13.938 C-12.911 14.654 -13.635 15.37 -14.381 16.107 C-15.42 17.151 -15.42 17.151 -16.48 18.215 C-17.422 19.16 -17.422 19.16 -18.384 20.125 C-19.997 21.996 -21.004 23.749 -22 26 C-22.66 25.34 -23.32 24.68 -24 24 C-18.867 18.125 -13.569 12.462 -8.062 6.938 C-7.495 6.366 -6.928 5.794 -6.343 5.204 C-2.248 1.124 -2.248 1.124 0 0 Z " fill="#313131" transform="translate(917,500)"/>
<path d="M0 0 C0.66 0.33 1.32 0.66 2 1 C-1.164 7.845 -4.62 11.963 -11 16 C-11.66 15.67 -12.32 15.34 -13 15 C-12.481 14.42 -11.961 13.84 -11.426 13.242 C-7.539 8.888 -3.702 4.512 0 0 Z " fill="#121212" transform="translate(893,522)"/>
<path d="M0 0 C0.66 0.33 1.32 0.66 2 1 C0.514 5.085 -1.7 6.215 -5.5 8.125 C-9.551 10.145 -9.551 10.145 -13 13 C-13 10.25 -13 10.25 -12 7 C-10.083 5.671 -8.154 4.798 -6.012 3.879 C-3.731 2.882 -1.908 1.59 0 0 Z " fill="#161616" transform="translate(482,235)"/>
<path d="M0 0 C0.66 0.33 1.32 0.66 2 1 C1 4 1 4 -1.18 5.168 C-2.069 5.504 -2.959 5.841 -3.875 6.188 C-4.759 6.532 -5.644 6.876 -6.555 7.23 C-9 8 -9 8 -12 8 C-11.777 6.105 -11.777 6.105 -11 4 C-9.004 2.988 -9.004 2.988 -6.562 2.312 C-3.201 1.363 -3.201 1.363 0 0 Z " fill="#171717" transform="translate(754,123)"/>
<path d="M0 0 C0 0.66 0 1.32 0 2 C-2.64 2.66 -5.28 3.32 -8 4 C-7.67 2.68 -7.34 1.36 -7 0 C-3.867 -1.044 -3.01 -0.934 0 0 Z " fill="#1A1A1A" transform="translate(783,580)"/>
<path d="M0 0 C-2 3 -2 3 -4.625 3.688 C-5.801 3.842 -5.801 3.842 -7 4 C-7.33 3.34 -7.66 2.68 -8 2 C-6.142 -1.716 -3.445 -1.069 0 0 Z " fill="#262626" transform="translate(790,578)"/>
<path d="M0 0 C0.33 0.99 0.66 1.98 1 3 C0.299 3.392 -0.403 3.784 -1.125 4.188 C-4.361 6.227 -7.103 8.507 -10 11 C-8.552 7.556 -6.723 5.639 -3.875 3.25 C-3.151 2.636 -2.426 2.023 -1.68 1.391 C-0.848 0.702 -0.848 0.702 0 0 Z " fill="#2C2C2C" transform="translate(950,462)"/>
<path d="M0 0 C0.66 0.33 1.32 0.66 2 1 C1.67 4.3 1.34 7.6 1 11 C0.67 11 0.34 11 0 11 C-0.33 9.35 -0.66 7.7 -1 6 C-1.33 6 -1.66 6 -2 6 C-2 4.35 -2 2.7 -2 1 C-1.34 0.67 -0.68 0.34 0 0 Z " fill="#343434" transform="translate(962,434)"/>
<path d="M0 0 C0.66 0.33 1.32 0.66 2 1 C-0.029 3.942 -2.058 5.971 -5 8 C-5.33 6.68 -5.66 5.36 -6 4 C-4.02 2.68 -2.04 1.36 0 0 Z " fill="#181818" transform="translate(703,149)"/>
<path d="M0 0 C0.66 0.33 1.32 0.66 2 1 C1.67 1.99 1.34 2.98 1 4 C0.01 4.33 -0.98 4.66 -2 5 C-2.66 5.66 -3.32 6.32 -4 7 C-3.67 5.02 -3.34 3.04 -3 1 C-2.01 0.67 -1.02 0.34 0 0 Z " fill="#232323" transform="translate(473,241)"/>
<path d="M0 0 C0.66 0.33 1.32 0.66 2 1 C1.67 1.99 1.34 2.98 1 4 C-1.562 5.188 -1.562 5.188 -4 6 C-4.33 5.34 -4.66 4.68 -5 4 C-3.366 2.292 -2.131 1.065 0 0 Z " fill="#212121" transform="translate(502,227)"/>
<path d="M0 0 C0.33 0.99 0.66 1.98 1 3 C-1.052 5.248 -2.007 6.002 -5 7 C-3.75 3.347 -3.329 2.219 0 0 Z " fill="#0F0F0F" transform="translate(953,457)"/>
</svg>
