<?xml version="1.0" encoding="UTF-8"?>
<!-- Generator: visioncortex VTracer 0.6.4 -->
<svg version="1.1" xmlns="http://www.w3.org/2000/svg" width="1152" height="648">
<path d="M0 0 C380.16 0 760.32 0 1152 0 C1152 213.84 1152 427.68 1152 648 C771.84 648 391.68 648 0 648 C0 434.16 0 220.32 0 0 Z " fill="#FEFEFE" transform="translate(0,0)"/>
<path d="M0 0 C0.951 0.406 1.903 0.812 2.883 1.23 C6.93 2.959 10.849 4.918 14.77 6.914 C25.448 12.346 36.121 17.046 47.684 20.324 C50 21 50 21 52.641 22.031 C57.996 23.576 63.488 23.673 69.037 23.947 C83.959 25.037 93.546 35.907 102.895 46.641 C104.35 48.272 105.868 49.849 107.43 51.379 C110.314 54.32 112.804 57.428 115.312 60.688 C116.283 61.938 117.255 63.188 118.227 64.438 C118.699 65.046 119.171 65.654 119.657 66.281 C121.473 68.606 123.33 70.896 125.188 73.188 C132.612 82.449 139.452 92.131 145.605 102.281 C146.081 103.065 146.556 103.849 147.046 104.656 C147.99 106.219 148.931 107.785 149.866 109.354 C152.132 113.113 154.468 116.673 157.172 120.133 C164.042 129.13 165.565 140.386 166.28 151.39 C166.797 158.589 168.679 164.815 174 170 C177.23 171.906 180.583 173.462 184 175 C184.817 175.385 185.635 175.771 186.477 176.168 C190.284 177.932 193.797 179.458 198 180 C198.387 179.434 198.773 178.868 199.172 178.285 C199.693 177.552 200.213 176.818 200.75 176.062 C201.26 175.332 201.771 174.601 202.297 173.848 C204.195 171.789 205.241 171.272 208 171 C208.33 171.33 208.66 171.66 209 172 C211.028 172.225 213.057 172.448 215.09 172.621 C217 173 217 173 219 175 C221.694 175.257 224.242 175.37 226.938 175.375 C227.647 175.399 228.357 175.424 229.088 175.449 C239.878 175.507 249.471 170.007 258.875 165.25 C259.861 164.763 260.847 164.275 261.863 163.773 C275.549 156.904 286.6 149.401 297.312 138.562 C298.17 137.702 298.17 137.702 299.044 136.825 C311.485 124.252 317.759 112.776 320.723 95.293 C322.139 91.641 323.458 90.512 326.956 88.821 C329.784 87.685 332.636 86.7 335.544 85.791 C338.18 84.942 340.75 83.975 343.336 82.984 C356.124 78.198 368.826 74.641 382.188 71.938 C382.915 71.786 383.643 71.634 384.393 71.478 C397.765 68.722 411.017 66.114 423.219 73.688 C430.982 80.142 435.598 88.053 440.438 96.812 C445.15 105.307 450.126 113.26 456 121 C456.97 122.31 457.939 123.621 458.906 124.934 C459.335 125.512 459.764 126.091 460.206 126.688 C464.5 132.494 468.629 138.365 472.594 144.402 C476.551 150.372 480.699 156.215 484.799 162.087 C488.582 167.51 492.336 172.949 496.046 178.422 C500.879 185.548 505.821 192.574 510.938 199.5 C511.8 200.67 511.8 200.67 512.68 201.863 C515.688 205.926 518.732 209.958 521.82 213.961 C536.392 232.993 536.392 232.993 537.688 245.062 C536.89 248.471 535.897 249.142 533.01 250.942 C528.746 253.187 524.196 254.737 519.672 256.371 C518.569 256.775 517.466 257.18 516.329 257.596 C513.994 258.449 511.657 259.299 509.319 260.145 C505.8 261.419 502.286 262.71 498.773 264.002 C487.156 268.249 475.576 272.286 463.586 275.341 C460.547 276.116 457.512 276.909 454.478 277.701 C448.86 279.161 443.237 280.598 437.609 282.018 C434.374 282.835 431.14 283.657 427.909 284.489 C410.043 289.086 392.33 292.674 374.117 295.492 C370.44 296.091 366.797 296.806 363.149 297.559 C344.248 301.437 325.035 303.69 305.872 305.79 C305.146 305.87 304.42 305.949 303.672 306.031 C302.949 306.11 302.226 306.19 301.481 306.271 C293.892 307.109 286.321 308.076 278.75 309.062 C277.463 309.228 276.176 309.393 274.851 309.564 C269.287 310.285 263.732 311.028 258.188 311.883 C244.929 313.877 231.805 314.466 218.417 314.71 C216.984 314.736 215.55 314.762 214.117 314.789 C213.419 314.802 212.721 314.815 212.001 314.828 C207.743 314.92 203.521 315.156 199.277 315.516 C192.739 316.068 186.246 316.153 179.688 316.125 C177.888 316.118 177.888 316.118 176.052 316.11 C172.368 316.086 168.684 316.046 165 316 C163.841 315.987 162.682 315.975 161.488 315.962 C158.22 315.916 154.955 315.839 151.688 315.75 C150.711 315.736 149.734 315.722 148.727 315.708 C142.584 315.49 139.169 314.273 134 311 C130.324 311.184 127.476 311.841 124 313 C121.688 313.052 119.375 313.092 117.062 313.125 C110.016 313.391 105.536 315.519 99.59 319.398 C96.128 321.539 94.051 322.165 90 322 C85.373 319.885 83.679 317.3 81.312 312.875 C80.62 311.606 79.926 310.338 79.23 309.07 C78.869 308.404 78.507 307.738 78.134 307.052 C76.21 303.571 74.16 300.166 72.125 296.75 C68.048 289.871 64.133 282.912 60.311 275.888 C58.394 272.39 56.451 269.157 54 266 C53.106 264.178 52.216 262.354 51.34 260.523 C50.05 258.093 48.581 255.848 47.064 253.555 C39.858 242.413 35.74 229.877 31.262 217.469 C30.131 214.361 28.968 211.27 27.781 208.184 C27.455 207.327 27.128 206.471 26.792 205.589 C26.205 204.052 25.614 202.518 25.017 200.985 C24.761 200.303 24.506 199.621 24.242 198.918 C23.915 198.064 23.915 198.064 23.582 197.192 C22.006 191.252 21.839 185.09 21.719 178.977 C21.701 178.237 21.683 177.497 21.664 176.735 C21.626 175.169 21.59 173.603 21.555 172.037 C21.463 167.989 21.354 163.942 21.246 159.895 C21.215 158.718 21.215 158.718 21.183 157.517 C20.526 128.624 20.526 128.624 7.102 103.453 C6 102 6 102 6 100 C5.308 99.89 4.616 99.781 3.902 99.668 C1.795 99.326 -0.31 98.972 -2.414 98.609 C-4.737 98.215 -7.066 97.848 -9.398 97.516 C-17.476 96.196 -24.599 93.799 -32.125 90.625 C-33.026 90.25 -33.927 89.875 -34.855 89.488 C-39.861 87.292 -43.322 85.155 -47 81 C-48.517 79.68 -50.059 78.387 -51.625 77.125 C-52.38 76.509 -53.136 75.893 -53.914 75.258 C-62.107 69.264 -70.26 64.722 -79.75 61.125 C-80.825 60.708 -81.9 60.291 -83.007 59.861 C-85.233 58.997 -87.462 58.137 -89.691 57.282 C-92.901 56.039 -96.092 54.759 -99.281 53.465 C-112.624 48.051 -112.624 48.051 -126.574 44.633 C-129.445 43.884 -130.977 43.188 -133 41 C-134.068 33.958 -129.97 29.421 -126 24 C-115.7 10.24 -103.406 6.373 -87.234 3.141 C-83.053 2.285 -79.094 1.13 -75.068 -0.277 C-72.054 -1.331 -69.002 -2.231 -65.938 -3.125 C-64.249 -3.624 -64.249 -3.624 -62.527 -4.133 C-43.303 -8.859 -17.814 -8.95 0 0 Z M-69.25 1.25 C-76.285 3.39 -83.275 5.348 -90.47 6.87 C-107.612 10.535 -118.213 17.283 -128 32 C-129.918 35.213 -130 36.017 -130 40 C-125.469 41.578 -120.956 43.028 -116.297 44.18 C-108.815 46.205 -101.656 49.052 -94.448 51.878 C-92.074 52.808 -89.694 53.726 -87.314 54.643 C-75.766 59.123 -64.429 63.698 -54.5 71.25 C-50.307 74.466 -50.307 74.466 -45.719 77.047 C-44 78 -44 78 -43.207 79.875 C-41.303 83.228 -38.049 84.396 -34.688 86 C-33.964 86.35 -33.241 86.701 -32.495 87.062 C-24.571 90.805 -16.684 93.484 -7.992 94.773 C5.614 96.871 5.614 96.871 9.695 100.195 C11.486 102.73 12.777 105.153 14 108 C14.563 109.011 14.563 109.011 15.137 110.043 C16.217 111.99 17.116 113.957 18 116 C18.349 116.75 18.699 117.5 19.059 118.273 C21.455 123.979 22.474 129.499 23.086 135.605 C23.17 136.431 23.255 137.257 23.342 138.108 C24.326 148.429 24.406 158.764 24.532 169.124 C24.745 185.262 27.133 198.277 32.803 213.406 C33.745 215.925 34.67 218.449 35.594 220.975 C39.825 232.445 44.514 243.419 51.125 253.75 C53.637 257.684 55.838 261.626 57.888 265.809 C60.016 270.002 62.401 274.053 64.75 278.125 C65.824 279.993 66.899 281.862 67.973 283.73 C68.492 284.633 69.012 285.536 69.547 286.466 C70.791 288.635 72.023 290.809 73.246 292.988 C76.63 299 80.124 304.922 83.812 310.75 C84.186 311.347 84.559 311.945 84.944 312.56 C86.792 315.437 88.107 317.071 91 319 C95.274 318.717 97.85 316.89 101.312 314.5 C107.764 310.586 112.902 310.318 120.199 310.164 C124.979 309.958 129.726 309.268 134 307 C134.33 306.01 134.66 305.02 135 304 C135.66 304 136.32 304 137 304 C136.897 304.763 136.794 305.526 136.688 306.312 C136.724 309.104 136.724 309.104 138.812 310.75 C146.395 313.724 155.325 313.151 163.383 313.133 C164.323 313.134 165.262 313.135 166.23 313.136 C168.198 313.136 170.166 313.135 172.134 313.13 C175.125 313.125 178.115 313.13 181.105 313.137 C183.031 313.136 184.957 313.135 186.883 313.133 C187.764 313.135 188.646 313.137 189.554 313.139 C194.386 313.121 199.07 312.819 203.864 312.229 C207.203 311.871 210.527 311.853 213.883 311.824 C215.378 311.804 216.873 311.783 218.369 311.761 C219.143 311.75 219.918 311.738 220.716 311.727 C237.333 311.455 253.414 310.014 269.869 307.591 C276.781 306.587 283.715 305.747 290.644 304.876 C298.099 303.935 305.549 302.965 313 302 C313.824 301.893 314.648 301.787 315.496 301.677 C341.043 298.413 341.043 298.413 366.422 294.065 C370.106 293.351 373.794 292.685 377.493 292.058 C396.631 288.763 415.403 284.195 434.228 279.462 C438.691 278.341 443.159 277.237 447.628 276.139 C451.144 275.272 454.657 274.394 458.169 273.513 C459.814 273.102 461.46 272.695 463.106 272.291 C473.356 269.774 483.098 266.636 492.876 262.653 C497.036 260.959 501.254 259.463 505.5 258 C511.683 255.844 517.824 253.597 523.938 251.25 C524.714 250.956 525.49 250.662 526.289 250.359 C530.498 248.755 530.498 248.755 534 246 C533.717 232.992 525.501 223.34 517.762 213.719 C508.919 202.724 500.956 191.03 493.004 179.383 C489.412 174.127 485.766 168.909 482.125 163.688 C477.046 156.4 472.001 149.091 467 141.75 C459.618 130.872 459.618 130.872 451.706 120.378 C446.173 113.309 442.018 105.464 437.654 97.643 C431.585 86.92 425.751 76.985 414 72 C403.183 70.701 392.492 72.795 381.938 75 C381.178 75.154 380.419 75.308 379.637 75.466 C367.407 77.959 355.881 81.401 344.31 86.12 C340.99 87.385 337.605 88.375 334.191 89.354 C331.129 90.257 328.648 91.192 326 93 C323.133 98.903 321.494 105.069 319.77 111.379 C315.69 123.244 308.305 132.86 299.438 141.562 C298.943 142.055 298.448 142.547 297.938 143.054 C287.809 153.048 276.771 159.762 264 166 C261.933 167.058 259.868 168.121 257.805 169.188 C254.012 171.132 250.216 173.066 246.395 174.953 C245.263 175.512 245.263 175.512 244.109 176.083 C232.994 180.916 217.135 178.802 206 175 C204.994 176.12 203.995 177.246 203 178.375 C202.165 179.315 202.165 179.315 201.312 180.273 C199.798 181.904 199.798 181.904 200 184 C193.911 182.672 188.612 180.686 183 178 C182.136 177.606 181.273 177.211 180.383 176.805 C175.342 174.427 171.651 172.221 168 168 C167.34 167.34 166.68 166.68 166 166 C164.131 160.671 163.612 155.602 163.188 150 C162.015 137.488 159.128 126.925 151.188 116.895 C148.162 112.891 145.678 108.626 143.146 104.301 C139.42 97.948 135.294 91.933 130.938 86 C130.222 85.026 130.222 85.026 129.493 84.032 C124.89 77.797 120.141 71.685 115.302 65.631 C114.035 64.044 112.777 62.45 111.52 60.855 C108.511 57.091 105.709 53.591 102 50.5 C99.047 48.039 96.995 45.575 94.625 42.562 C89.682 36.388 84.619 31.54 77 29 C76.67 28.67 76.34 28.34 76 28 C74.485 27.821 72.964 27.7 71.441 27.605 C70.497 27.537 69.553 27.468 68.58 27.396 C66.604 27.26 64.628 27.132 62.65 27.014 C56.623 26.554 51.728 25.383 46.191 22.956 C43.519 21.79 40.81 21.015 38 20.25 C32.328 18.55 26.969 16.391 21.562 14 C20.805 13.668 20.048 13.335 19.268 12.993 C15.972 11.506 13.021 10.014 10.02 7.977 C6.233 5.498 2.345 3.967 -1.875 2.375 C-2.639 2.076 -3.404 1.777 -4.191 1.469 C-13.729 -2.191 -21.687 -3.302 -31.927 -3.206 C-33.929 -3.188 -35.933 -3.187 -37.936 -3.186 C-49.168 -3.135 -58.53 -2.075 -69.25 1.25 Z " fill="#141414" transform="translate(275,74)"/>
<path d="M0 0 C0 0.66 0 1.32 0 2 C-14.38 6.103 -28.846 9.853 -43.345 13.511 C-45.929 14.164 -48.51 14.824 -51.091 15.489 C-68.951 20.085 -86.66 23.683 -104.87 26.487 C-108.605 27.099 -112.302 27.84 -116.001 28.638 C-118 29 -118 29 -121 29 C-120.67 27.68 -120.34 26.36 -120 25 C-118.835 24.841 -117.669 24.683 -116.469 24.52 C-96.71 21.747 -77.375 17.437 -58.047 12.539 C-56.873 12.242 -56.873 12.242 -55.676 11.938 C-48.363 10.084 -41.053 8.217 -33.745 6.34 C-29.699 5.302 -25.652 4.273 -21.602 3.25 C-20.075 2.862 -18.549 2.47 -17.023 2.075 C-14.912 1.528 -12.798 0.992 -10.683 0.459 C-9.485 0.153 -8.287 -0.154 -7.053 -0.471 C-4.199 -0.965 -2.673 -0.999 0 0 Z " fill="#232323" transform="translate(754,343)"/>
<path d="M0 0 C0.495 1.485 0.495 1.485 1 3 C-0.135 4.72 -0.135 4.72 -1.906 6.613 C-2.559 7.319 -3.211 8.025 -3.883 8.752 C-4.931 9.865 -4.931 9.865 -6 11 C-6.657 11.733 -7.315 12.465 -7.992 13.22 C-19.029 25.454 -30.31 34.126 -45.02 41.505 C-48.115 43.058 -51.181 44.662 -54.246 46.273 C-56.246 47.31 -58.247 48.344 -60.25 49.375 C-61.652 50.1 -61.652 50.1 -63.083 50.84 C-63.948 51.272 -64.812 51.704 -65.703 52.148 C-66.463 52.532 -67.222 52.915 -68.005 53.31 C-70 54 -70 54 -73 53 C-72 50 -72 50 -70.093 48.824 C-69.261 48.449 -68.43 48.074 -67.574 47.688 C-66.643 47.259 -65.712 46.83 -64.753 46.389 C-63.741 45.93 -62.73 45.472 -61.688 45 C-59.56 43.992 -57.434 42.982 -55.309 41.969 C-52.347 40.565 -49.386 39.17 -46.387 37.848 C-29.706 30.48 -18.128 18.049 -5.833 4.949 C-2.204 1.102 -2.204 1.102 0 0 Z " fill="#262626" transform="translate(587,198)"/>
<path d="M0 0 C1.061 0.202 2.122 0.405 3.215 0.613 C4.278 0.803 5.342 0.992 6.438 1.188 C9.152 1.926 9.152 1.926 11.152 3.926 C13.383 4.203 13.383 4.203 15.941 4.121 C17.353 4.111 17.353 4.111 18.793 4.102 C19.778 4.085 20.763 4.068 21.777 4.051 C22.77 4.042 23.762 4.033 24.785 4.023 C27.241 4 29.697 3.967 32.152 3.926 C32.152 4.916 32.152 5.906 32.152 6.926 C28.642 8.681 24.645 8.161 20.777 8.176 C19.875 8.181 18.973 8.187 18.043 8.192 C11.818 8.146 6.373 7.376 0.465 5.289 C-1.949 4.646 -1.949 4.646 -4.035 6.344 C-4.633 6.866 -5.231 7.388 -5.848 7.926 C-6.508 7.926 -7.168 7.926 -7.848 7.926 C-5.017 -0.131 -5.017 -0.131 0 0 Z " fill="#0A0A0A" transform="translate(482.84765625,245.07421875)"/>
<path d="M0 0 C-0.33 0.66 -0.66 1.32 -1 2 C-4.005 2.748 -6.959 3.376 -10 3.938 C-10.893 4.109 -11.786 4.28 -12.707 4.456 C-15.469 4.981 -18.234 5.493 -21 6 C-21.846 6.157 -22.692 6.314 -23.563 6.475 C-25.895 6.906 -28.228 7.33 -30.562 7.75 C-31.623 7.941 -31.623 7.941 -32.705 8.136 C-35.517 8.629 -38.138 9 -41 9 C-40.67 7.68 -40.34 6.36 -40 5 C-38.742 4.818 -37.484 4.636 -36.188 4.449 C-34.458 4.196 -32.729 3.942 -31 3.688 C-30.099 3.555 -29.198 3.423 -28.27 3.286 C-21.192 2.225 -14.192 0.917 -7.188 -0.547 C-4.307 -0.956 -2.687 -0.994 0 0 Z " fill="#1D1D1D" transform="translate(674,363)"/>
<path d="M0 0 C0.33 0.99 0.66 1.98 1 3 C-2.499 6.548 -6.005 10.09 -9.516 13.626 C-10.71 14.83 -11.902 16.036 -13.093 17.243 C-14.803 18.978 -16.52 20.706 -18.238 22.434 C-18.77 22.975 -19.301 23.517 -19.848 24.075 C-22.22 26.448 -23.77 27.923 -27 29 C-25.378 24.899 -22.423 22.169 -19.336 19.141 C-18.784 18.591 -18.232 18.042 -17.663 17.476 C-15.905 15.729 -14.14 13.99 -12.375 12.25 C-11.179 11.064 -9.984 9.878 -8.789 8.691 C-5.865 5.789 -2.934 2.893 0 0 Z " fill="#171717" transform="translate(586,200)"/>
<path d="M0 0 C0.66 0.33 1.32 0.66 2 1 C0.855 4.435 0.43 4.617 -2.598 6.262 C-3.316 6.658 -4.035 7.054 -4.775 7.463 C-5.53 7.867 -6.285 8.271 -7.062 8.688 C-7.821 9.103 -8.58 9.519 -9.361 9.947 C-11.236 10.973 -13.118 11.988 -15 13 C-15 10 -15 10 -13.879 8.547 C-11.38 6.489 -8.727 4.891 -5.938 3.25 C-4.874 2.616 -3.811 1.982 -2.715 1.328 C-1.819 0.89 -0.923 0.452 0 0 Z " fill="#141414" transform="translate(556,227)"/>
<path d="M0 0 C-0.33 0.66 -0.66 1.32 -1 2 C-3.504 2.633 -3.504 2.633 -6.562 3.125 C-8.08 3.376 -8.08 3.376 -9.629 3.633 C-10.803 3.815 -10.803 3.815 -12 4 C-11.18 2.051 -11.18 2.051 -10 0 C-6.366 -1.027 -3.581 -1.24 0 0 Z " fill="#161616" transform="translate(674,363)"/>
<path d="M0 0 C-2.355 2.726 -4.541 3.988 -8 5 C-10.312 4.625 -10.312 4.625 -12 4 C-10.72 1.441 -9.758 1.301 -7.125 0.312 C-6.077 -0.095 -6.077 -0.095 -5.008 -0.512 C-3 -1 -3 -1 0 0 Z " fill="#101010" transform="translate(765,339)"/>
<path d="M0 0 C-1.894 3.342 -2.941 3.98 -6.688 5.25 C-8.327 5.621 -8.327 5.621 -10 6 C-10 4.68 -10 3.36 -10 2 C-8.712 1.47 -7.42 0.951 -6.125 0.438 C-5.406 0.147 -4.686 -0.143 -3.945 -0.441 C-2 -1 -2 -1 0 0 Z " fill="#222222" transform="translate(801,325)"/>
<path d="M0 0 C-0.33 2.97 -0.66 5.94 -1 9 C-1.99 8.67 -2.98 8.34 -4 8 C-3.744 5.657 -3.407 3.322 -3 1 C-1 0 -1 0 0 0 Z " fill="#0F0F0F" transform="translate(597,176)"/>
<path d="M0 0 C0.66 0.33 1.32 0.66 2 1 C0.902 3.993 0.323 4.846 -2.625 6.25 C-3.409 6.498 -4.192 6.745 -5 7 C-5 5.68 -5 4.36 -5 3 C-2.625 1.188 -2.625 1.188 0 0 Z " fill="#1A1A1A" transform="translate(378,387)"/>
</svg>
